<svg version="1.2" xmlns="http://www.w3.org/2000/svg" viewBox="0 0 1052 1053" width="1052" height="1053"><defs><linearGradient id="P" gradientUnits="userSpaceOnUse"/><linearGradient id="g1" x2="1" href="#P" gradientTransform="matrix(585.704,-260.512,380.909,856.389,113.361,748.09)"><stop stop-color="#861cff"/><stop offset="1" stop-color="#ff34db"/></linearGradient><linearGradient id="g2" x2="1" href="#P" gradientTransform="matrix(-1036.225,-166.779,166.773,-1036.185,1044.097,610.366)"><stop stop-color="#861cff"/><stop offset="1" stop-color="#ff34db"/></linearGradient><linearGradient id="g3" x2="1" href="#P" gradientTransform="matrix(-557.552,282.632,-439.354,-866.722,507.628,568.995)"><stop stop-color="#861cff"/><stop offset="1" stop-color="#ff34db"/></linearGradient></defs><style>.a{fill:url(#g1)}.b{fill:url(#g2)}.c{opacity:.4;fill:url(#g3)}</style><path class="a" d="m835.3 902.1c-84.1-15.6-129.6-54.5-147-71.3q-2.2-2.1-4.3-4.3-2.1-2.1-4.1-4.4-2.1-2.1-4.1-4.4c-1.7-2-3.5-3.9-5.2-6-1.3-1.5-2.5-3-3.7-4.6-0.9-1-1.8-2.1-2.6-3.2-0.3-0.4-0.5-0.7-0.8-1.1q-2-2.5-3.9-5-6.5-8.8-12.2-17.8c-0.9-1.2-1.6-2.4-2.4-3.7 0-0.2-0.1-0.3-0.2-0.4-4.2-6.7-8.1-13.4-11.7-20.1l-0.1 0.1c-27.3 12.8-57.4 20.9-89.4 23.1-139.2 9.7-259.9-95.2-269.6-234.3-5.9-84.2 30.1-161.5 90.2-211.7q-5.1-3.1-10.1-6-5.1-2.9-10-5.7c-3.4-1.8-6.7-3.6-10.1-5.4q-5-2.6-10-5c-3.4-1.7-6.7-3.4-10-4.9-3.4-1.6-6.7-3.1-10-4.6-2.2-1-4.4-2-6.7-2.9-2.2-1.1-4.5-2-6.7-2.9q-8.1-3.5-16.3-6.5c-2.7-1.1-5.5-2.2-8.3-3.2q-4.1-1.5-8.2-2.8c-2.3-0.9-4.7-1.7-7-2.4-14.8-5-29.2-9.2-43.2-12.6-3.3-0.9-6.5-1.7-9.7-2.4-5.8-1.4-11.5-2.6-17.1-3.8q-0.9-0.2-1.8-0.4c-3.2-0.6-6.2-1.2-9.3-1.7q-4.6-0.9-9-1.6c-3.1-0.6-6-1-9-1.5q-4.2-0.7-8.4-1.3-4.5-0.6-8.8-1.2-4.1-0.5-8.3-1c-5.5-0.6-10.8-1.1-15.9-1.6q-8.3-0.7-16-1.3c-4.5-0.3-8.9-0.6-13.1-0.7-11 28.1-19.8 56.5-26.3 85.2-1.7 7.5-3.3 15.1-4.6 22.7q-3.7 19.9-5.9 39.8-2 16.4-2.9 32.7c-1.7 30.2-1 60.3 1.9 89.9 1.4 14 3.3 27.9 5.7 41.7 4.8 27.6 11.6 54.7 20.3 80.9q4.4 13.2 9.3 26c40 103.3 109.9 193.1 204.1 254 2.4 1.5 4.7 3 7.1 4.5 4.8 3 9.6 5.9 14.5 8.7 17 9.8 34.5 18.6 52.4 26.3q11.5 5 23.2 9.4c6.4 2.4 12.9 4.7 19.5 6.9 2.7 0.9 5.5 1.8 8.3 2.7 7.7 2.4 15.5 4.7 23.4 6.7q6.2 1.6 12.5 3.1c5.4 1.3 10.8 2.5 16.3 3.6 4.4 0.9 8.7 1.8 13.1 2.5 62.3 11.1 126.8 11.1 190.4 0.2q5.7-1 11.4-2.1c54.1-10.4 107.4-28.9 157.9-55.2q12.3-6.5 24.5-13.6 12.1-7.1 24-14.9 0 0 0 0 2.4-1.6 4.8-3.2c-18.3-1-35.2-3.1-50.8-6z"/><path fill-rule="evenodd" class="b" d="m1049.4 490.4c6.4 91.8-11.2 179.7-47.5 257.6-43.4 13.7-111.1 26.1-187.6 6.4-47.2-12.2-83.5-32.9-108.2-50.3 49-49.8 77.2-119.6 71.9-194.7-9.8-139.2-130.4-244.2-269.6-234.4-55.1 3.8-104.8 25.1-144.2 57.9v0.1q-5.1-3.1-10.1-6-5.1-2.9-10.1-5.6c-3.3-1.9-6.7-3.7-10-5.5-3.4-1.7-6.7-3.4-10-5-3.4-1.7-6.7-3.4-10-4.9-3.4-1.6-6.7-3.1-10-4.6-2.2-1-4.4-2-6.7-2.9-2.3-1.1-4.5-2-6.7-2.9q-8.1-3.5-16.3-6.5c-2.7-1.1-5.6-2.2-8.3-3.1q-4.1-1.6-8.2-2.9c-2.4-0.9-4.7-1.7-7-2.4-14.8-5-29.2-9.2-43.2-12.6-3.3-0.9-6.5-1.7-9.7-2.4-5.8-1.4-11.5-2.6-17.1-3.8q-0.9-0.2-1.9-0.3c-3.1-0.7-6.2-1.3-9.2-1.8q-4.6-0.9-9.1-1.6c-3-0.6-5.9-1-8.9-1.5q-4.2-0.7-8.4-1.3-4.5-0.6-8.8-1.2-4.3-0.5-8.3-1c-5.5-0.6-10.8-1.2-15.9-1.6q-8.3-0.7-16-1.3c-4.5-0.3-8.9-0.6-13.1-0.7-11 28.1-19.8 56.5-26.3 85.2-1.7 7.5-3.2 15.1-4.6 22.7q-3.7 19.9-5.9 39.8-2 16.4-2.9 32.7c-1.7 30.2-1 60.3 1.9 89.9q2.1 21 5.7 41.7c4.8 27.6 11.6 54.6 20.3 80.9q4.4 13.2 9.3 26c39.9 103.3 109.9 193.1 204.1 254 2.4 1.5 4.7 3 7.1 4.5 4.8 3 9.6 5.9 14.5 8.7 17 9.8 34.5 18.6 52.4 26.3q11.5 5 23.2 9.4c6.4 2.4 12.9 4.7 19.5 6.9 2.7 0.9 5.5 1.8 8.3 2.7 7.7 2.4 15.5 4.7 23.4 6.7q6.2 1.6 12.5 3.1c5.4 1.3 10.8 2.5 16.3 3.6 4.4 0.9 8.7 1.7 13.1 2.5 62.3 11.1 126.8 11.1 190.4 0.2q5.7-1 11.4-2.1c54.1-10.4 107.4-28.9 157.9-55.3 8.2-4.2 16.4-8.8 24.5-13.5q12.1-7.1 24-14.9 0 0 0-0.1c0.6 0.1 1.2 0.2 1.8 0.2-84.7 78.9-196 130.3-320.5 139-289.1 20.3-539.8-197.7-560-486.7-20.2-289.1 197.7-539.8 486.8-560.1 289.1-20.2 539.7 197.8 560 486.8zm-163.2 417.7c-1.6 1.1-3.3 2.1-4.9 3.1q2.4-1.5 4.8-3.1c0 0 0 0 0.1 0z"/><path class="c" d="m886.2 908.1c-1.6 1.1-3.3 2.1-4.9 3.1q-0.1 0.1 0 0.1c-7.9 5.2-15.9 10.1-24 14.8-8.1 4.8-16.3 9.3-24.5 13.6-50.5 26.4-103.8 44.8-157.9 55.3q-5.7 1.1-11.4 2.1c-63.6 10.9-128.1 10.8-190.4-0.2-4.4-0.8-8.7-1.6-13.1-2.5-5.5-1.1-10.9-2.3-16.3-3.6q-6.3-1.5-12.5-3.2c-7.9-2-15.7-4.2-23.4-6.6-2.8-0.9-5.6-1.8-8.3-2.7-6.6-2.2-13.1-4.5-19.5-6.9q-11.7-4.4-23.2-9.4-26.9-11.6-52.4-26.3c-4.9-2.8-9.7-5.7-14.5-8.7-2.4-1.5-4.7-3-7.1-4.5-94.2-60.9-164.2-150.8-204.1-254q-4.9-12.9-9.3-26c-8.7-26.3-15.5-53.3-20.3-80.9q-3.6-20.7-5.7-41.7c-3-29.6-3.6-59.7-1.9-89.9 0.6-10.9 1.6-21.8 2.9-32.7q2.2-19.9 5.9-39.8c1.3-7.6 2.9-15.2 4.6-22.8 6.5-28.6 15.2-57 26.3-85.1 4.2 0.2 8.6 0.4 13.1 0.7q7.7 0.6 16 1.2 7.7 0.8 15.9 1.7 4.1 0.5 8.3 1 4.3 0.6 8.7 1.2 4.3 0.6 8.5 1.3c3 0.4 5.9 0.9 8.9 1.4q4.5 0.8 9.1 1.7c3 0.5 6.1 1.1 9.2 1.7q1 0.2 1.9 0.4c5.6 1.2 11.3 2.4 17 3.8 3.3 0.7 6.5 1.5 9.8 2.3 14 3.5 28.4 7.7 43.1 12.6 2.4 0.8 4.7 1.6 7.1 2.4q4 1.4 8.1 2.9c2.8 1 5.7 2.1 8.4 3.2q8.1 3 16.2 6.4c2.3 1 4.5 1.9 6.8 2.9 2.3 1 4.5 2 6.7 3 3.3 1.5 6.6 3 10 4.6 3.3 1.5 6.6 3.2 10 4.8q5 2.5 10 5.1c3.3 1.8 6.7 3.6 10 5.4q5 2.8 10.1 5.7c3.3 1.9 6.7 3.9 10.1 5.9q10.5 6.4 20.9 13.4c29 19.3 53.9 40 75 60.2 17.9 18.1 41.1 45.2 66.3 88.8 39.7 68.5 36.3 95.1 69.7 175.4 4.1 9.8 15.3 45.6 36.9 85.1 3.9 7.2 8.1 14.4 12.7 21.6q0.7 1.3 1.6 2.6 5.8 9 12.3 17.8c1.3 1.7 2.5 3.3 3.8 5 0.3 0.4 0.6 0.7 0.9 1.1q1.2 1.7 2.5 3.2 1.9 2.4 3.8 4.6c1.7 2 3.4 4 5.2 6 1.3 1.5 2.7 3 4 4.4q2.1 2.3 4.2 4.4 2.1 2.2 4.3 4.3c17.4 16.8 62.9 55.7 147 71.3 15.6 2.9 32.5 5 50.8 6 0 0 0.1 0 0.1 0z"/></svg>